<svg id="Calque_1" data-name="Calque 1" xmlns="http://www.w3.org/2000/svg" viewBox="0 0 510.93 511.02"><defs><style>.cls-1{fill:#bd6d5c;}</style></defs><g id="Calque_2" data-name="Calque 2"><g id="Calque_1-2" data-name="Calque 1"><path class="cls-1" d="M509.61,150.27c-1.2-27.16-5.59-45.82-11.88-62A130.85,130.85,0,0,0,423,13.51C406.69,7.22,388.12,2.83,361,1.63,333.61.33,325,0,255.54,0s-78.06.3-105.31,1.5-45.82,5.59-62,11.87A130.91,130.91,0,0,0,13.46,88.18C7.17,104.45,2.78,123,1.58,150.18.29,177.54,0,186.18,0,255.6s.31,78.06,1.5,105.31,5.59,45.82,11.88,62a130.85,130.85,0,0,0,74.77,74.76c16.27,6.29,34.84,10.68,62,11.88s35.94,1.5,105.32,1.5,78.06-.3,105.31-1.5,45.82-5.59,62-11.88a130.71,130.71,0,0,0,74.77-74.76c6.29-16.28,10.68-34.84,11.88-62s1.5-35.93,1.5-105.31S510.8,177.49,509.61,150.27Zm-46,208.63c-1.1,25-5.29,38.43-8.78,47.41a84.75,84.75,0,0,1-48.52,48.52c-9,3.49-22.56,7.69-47.42,8.78-26.95,1.2-35,1.5-103.21,1.5s-76.37-.3-103.22-1.5c-25-1.09-38.44-5.29-47.42-8.78a78.6,78.6,0,0,1-29.35-19.07,79.5,79.5,0,0,1-19.07-29.34c-3.49-9-7.68-22.57-8.78-47.42-1.2-27-1.49-35-1.49-103.22s.29-76.37,1.49-103.22c1.1-25,5.29-38.43,8.78-47.41A77.76,77.76,0,0,1,75.79,75.79,79.4,79.4,0,0,1,105.08,56.7c9-3.49,22.56-7.69,47.42-8.78,26.95-1.2,35-1.5,103.21-1.5s76.37.3,103.22,1.5c25,1.09,38.44,5.29,47.42,8.78A78.65,78.65,0,0,1,435.7,75.76a79.57,79.57,0,0,1,19.07,29.36c3.49,9,7.68,22.55,8.78,47.41,1.2,27,1.5,35,1.5,103.22s-.26,76.17-1.46,103.12Z" transform="translate(0.02 -0.03)"/><path class="cls-1" d="M255.55,124.27A131.27,131.27,0,1,0,386.82,255.55,131.27,131.27,0,0,0,255.55,124.27Zm0,216.42a85.15,85.15,0,1,1,85.16-85.15,85.15,85.15,0,0,1-85.16,85.15Z" transform="translate(0.02 -0.03)"/><path class="cls-1" d="M422.66,119.09A30.65,30.65,0,1,1,392,88.45h0A30.66,30.66,0,0,1,422.66,119.09Z" transform="translate(0.02 -0.03)"/></g></g></svg>