<svg id="Calque_1" data-name="Calque 1" xmlns="http://www.w3.org/2000/svg" viewBox="0 0 511.97 512"><defs><style>.cls-1{fill:#bd6d5c;}</style></defs><g id="Calque_2" data-name="Calque 2"><g id="Calque_1-2" data-name="Calque 1"><path class="cls-1" d="M511.84,512H512V324.2c0-91.86-19.78-162.62-127.17-162.62-51.63,0-86.27,28.33-100.41,55.19h-1.5V170.16H181.1V512h106V342.72c0-44.56,8.45-87.66,63.64-87.66,54.38,0,55.19,50.86,55.19,90.52V512Z"/><path class="cls-1" d="M8.45,170.18H114.6V512H8.45Z"/><path class="cls-1" d="M61.48,0A61.5,61.5,0,0,0,0,61.48c0,34,27.54,62.06,61.48,62.06S123,95.43,123,61.48A61.51,61.51,0,0,0,61.48,0Z"/></g></g></svg>